<svg width="33" height="32" fill="none" xmlns="http://www.w3.org/2000/svg"><path d="M19.167 24V8A2.667 2.667 0 0016.5 5.333H5.833A2.667 2.667 0 003.167 8v14.667A1.333 1.333 0 004.5 24h2.667M20.5 24h-8m13.333 0H28.5a1.333 1.333 0 001.333-1.333V17.8c0-.303-.104-.596-.293-.832l-4.64-5.8a1.333 1.333 0 00-1.04-.501h-4.693" stroke="#09235C" stroke-width="2.667" stroke-linecap="round" stroke-linejoin="round"/><path d="M23.167 26.667a2.667 2.667 0 100-5.334 2.667 2.667 0 000 5.334zm-13.334 0a2.667 2.667 0 100-5.334 2.667 2.667 0 000 5.334z" stroke="#09235C" stroke-width="2.667" stroke-linecap="round" stroke-linejoin="round"/></svg>