<svg width="124" height="19" fill="none" xmlns="http://www.w3.org/2000/svg"><path d="M12.59 6.188a3.826 3.826 0 00-.502-1.1 3.104 3.104 0 00-.792-.818 3.4 3.4 0 00-1.057-.52 4.466 4.466 0 00-1.304-.179c-.892 0-1.676.222-2.353.665-.67.443-1.193 1.088-1.568 1.934-.375.841-.562 1.87-.562 3.086 0 1.216.184 2.25.554 3.102.369.852.892 1.503 1.568 1.952.676.443 1.474.664 2.395.664.835 0 1.548-.147 2.139-.443a3.177 3.177 0 001.364-1.27c.318-.545.477-1.19.477-1.934l.75.11h-4.5V8.66h7.304v2.199c0 1.534-.324 2.852-.972 3.954a6.621 6.621 0 01-2.676 2.54c-1.136.591-2.437.887-3.903.887-1.637 0-3.074-.361-4.313-1.083-1.238-.727-2.204-1.758-2.898-3.093C1.054 12.722.711 11.13.711 9.29c0-1.415.204-2.676.613-3.784.415-1.114.994-2.057 1.738-2.83a7.513 7.513 0 012.6-1.764C6.65.509 7.722.307 8.875.307c.989 0 1.91.145 2.761.434a7.357 7.357 0 012.267 1.21 6.552 6.552 0 011.628 1.867c.42.716.69 1.506.81 2.37h-3.75zm12.653 12.068c-1.347 0-2.506-.273-3.477-.819a5.603 5.603 0 01-2.233-2.335c-.523-1.011-.784-2.207-.784-3.588 0-1.346.26-2.528.784-3.545A5.796 5.796 0 0121.74 5.59c.955-.568 2.074-.852 3.358-.852.864 0 1.668.139 2.412.417a5.35 5.35 0 011.96 1.236c.563.551 1 1.244 1.313 2.08.312.83.468 1.8.468 2.914v.998H20.197v-2.25h7.637c0-.523-.114-.986-.341-1.39a2.442 2.442 0 00-.946-.946c-.398-.233-.86-.35-1.39-.35-.55 0-1.04.129-1.465.384-.42.25-.75.588-.989 1.015-.238.42-.36.889-.366 1.406v2.139c0 .648.119 1.207.358 1.679a2.62 2.62 0 001.03 1.09c.444.257.97.385 1.578.385.403 0 .772-.057 1.107-.171.336-.114.623-.284.861-.511.239-.228.42-.506.546-.836l3.358.222a4.584 4.584 0 01-1.049 2.114c-.522.596-1.198 1.062-2.028 1.397-.824.33-1.776.495-2.855.495zm14.414 0c-1.347 0-2.506-.273-3.477-.819a5.604 5.604 0 01-2.233-2.335c-.523-1.011-.784-2.207-.784-3.588 0-1.346.261-2.528.784-3.545a5.797 5.797 0 012.207-2.378c.955-.568 2.074-.852 3.358-.852.864 0 1.668.139 2.412.417a5.35 5.35 0 011.96 1.236c.563.551 1 1.244 1.313 2.08.312.83.468 1.8.468 2.914v.998H34.612v-2.25h7.636c0-.523-.114-.986-.341-1.39a2.442 2.442 0 00-.946-.946c-.398-.233-.86-.35-1.39-.35a2.8 2.8 0 00-1.465.384c-.42.25-.75.588-.989 1.015-.238.42-.36.889-.366 1.406v2.139c0 .648.119 1.207.358 1.679a2.62 2.62 0 001.03 1.09c.444.257.97.385 1.578.385.403 0 .772-.057 1.108-.171a2.3 2.3 0 00.86-.511c.239-.228.42-.506.546-.836l3.358.222a4.585 4.585 0 01-1.048 2.114c-.523.596-1.2 1.062-2.029 1.397-.824.33-1.776.495-2.855.495zm11.738-4.023l.008-4.355h.529l4.193-4.969h4.168l-5.634 6.58h-.86l-2.404 2.744zM48.105 18V.545h3.63V18h-3.63zm8.182 0l-3.852-5.702 2.42-2.565L60.54 18h-4.253zM71.68 5.565c-.068-.687-.36-1.221-.878-1.602-.517-.38-1.218-.571-2.105-.571-.602 0-1.11.085-1.525.256-.415.164-.733.395-.955.69-.216.296-.324.63-.324 1.006a1.44 1.44 0 00.196.818c.148.233.35.435.605.605.256.165.551.31.887.435.335.119.693.221 1.074.307l1.568.375c.761.17 1.46.397 2.096.681a6.368 6.368 0 011.654 1.049c.466.414.826.903 1.082 1.465.261.563.395 1.208.4 1.935-.005 1.068-.278 1.995-.818 2.779-.534.778-1.306 1.383-2.318 1.815-1.005.426-2.218.64-3.639.64-1.409 0-2.636-.217-3.682-.649-1.04-.431-1.852-1.07-2.437-1.917-.58-.853-.884-1.906-.912-3.162h3.57c.04.585.208 1.074.504 1.466.3.386.701.679 1.201.878.506.193 1.077.29 1.713.29.625 0 1.168-.091 1.628-.273.466-.182.827-.435 1.083-.759.255-.324.383-.696.383-1.116 0-.392-.116-.722-.35-.989-.227-.267-.562-.494-1.005-.682a10.225 10.225 0 00-1.61-.511l-1.901-.477c-1.472-.358-2.634-.918-3.486-1.68-.852-.76-1.276-1.786-1.27-3.076-.006-1.057.276-1.98.844-2.77.574-.79 1.36-1.406 2.36-1.85 1-.443 2.137-.664 3.41-.664 1.295 0 2.426.221 3.392.665.971.443 1.727 1.06 2.267 1.849.54.79.818 1.705.835 2.744H71.68zm13.223-.656v2.727H77.02V4.91h7.883zM78.81 1.773h3.631v12.204c0 .335.051.597.153.784a.85.85 0 00.427.384c.187.074.403.11.647.11.17 0 .341-.014.512-.042.17-.034.3-.06.392-.077l.57 2.702a10.25 10.25 0 01-.766.196c-.33.08-.73.128-1.202.145-.875.034-1.642-.082-2.301-.35a3.211 3.211 0 01-1.526-1.244c-.363-.562-.542-1.273-.537-2.13V1.772zm14.304 16.483c-1.324 0-2.47-.282-3.435-.844a5.775 5.775 0 01-2.225-2.37c-.522-1.016-.783-2.195-.783-3.536 0-1.353.26-2.534.783-3.546a5.706 5.706 0 012.225-2.37c.966-.567 2.11-.851 3.435-.851 1.323 0 2.465.284 3.426.852a5.689 5.689 0 012.233 2.37c.523 1.01.784 2.192.784 3.545 0 1.34-.261 2.52-.784 3.537a5.757 5.757 0 01-2.233 2.369c-.96.562-2.103.844-3.426.844zm.017-2.813c.602 0 1.105-.17 1.508-.511.404-.347.708-.818.912-1.415.21-.596.316-1.275.316-2.037 0-.761-.106-1.44-.316-2.037-.204-.596-.508-1.068-.912-1.415-.403-.346-.906-.52-1.508-.52-.608 0-1.12.174-1.534.52-.41.347-.72.819-.93 1.415-.204.597-.306 1.276-.306 2.037 0 .761.102 1.44.307 2.037.21.597.52 1.068.929 1.415.414.34.926.511 1.534.511zM101.988 18V4.91h3.52v2.283h.136c.239-.812.639-1.426 1.202-1.84a3.154 3.154 0 011.943-.631c.182 0 .378.01.588.034.21.022.395.054.554.093v3.222a4.729 4.729 0 00-.707-.136 6.358 6.358 0 00-.827-.06c-.534 0-1.011.116-1.432.35a2.567 2.567 0 00-.988.954c-.239.41-.358.88-.358 1.415V18h-3.631zm15.247.256c-1.347 0-2.506-.273-3.477-.819a5.604 5.604 0 01-2.233-2.335c-.523-1.011-.784-2.207-.784-3.588 0-1.346.261-2.528.784-3.545a5.796 5.796 0 012.207-2.378c.955-.568 2.074-.852 3.358-.852.864 0 1.668.139 2.412.417.75.273 1.404.685 1.96 1.236.563.551 1 1.244 1.313 2.08.312.83.469 1.8.469 2.914v.998H112.19v-2.25h7.636c0-.523-.114-.986-.341-1.39a2.443 2.443 0 00-.946-.946c-.398-.233-.861-.35-1.389-.35a2.8 2.8 0 00-1.466.384c-.421.25-.75.588-.989 1.015-.238.42-.36.889-.366 1.406v2.139c0 .648.119 1.207.358 1.679a2.61 2.61 0 001.031 1.09c.443.257.969.385 1.577.385a3.44 3.44 0 001.108-.171 2.3 2.3 0 00.86-.511 2.22 2.22 0 00.546-.836l3.358.222a4.594 4.594 0 01-1.048 2.114c-.523.596-1.199 1.062-2.029 1.397-.824.33-1.775.495-2.855.495z" fill="#09235C"/></svg>