<svg width="196" height="20" fill="none" xmlns="http://www.w3.org/2000/svg"><path d="M7.683 3.53a.353.353 0 01.634 0l1.54 3.12a1.415 1.415 0 001.063.773l3.444.504a.353.353 0 01.196.602l-2.49 2.426a1.416 1.416 0 00-.408 1.252l.588 3.426a.354.354 0 01-.514.374l-3.079-1.619a1.415 1.415 0 00-1.315 0l-3.078 1.619a.353.353 0 01-.513-.374l.587-3.426a1.414 1.414 0 00-.407-1.252L1.44 8.53a.353.353 0 01.196-.604l3.443-.503a1.415 1.415 0 001.065-.774l1.54-3.119zm20 0a.353.353 0 01.634 0l1.54 3.12a1.415 1.415 0 001.063.773l3.444.504a.353.353 0 01.196.602l-2.49 2.426a1.416 1.416 0 00-.408 1.252l.588 3.426a.354.354 0 01-.514.374l-3.079-1.619a1.415 1.415 0 00-1.315 0l-3.078 1.619a.353.353 0 01-.513-.374l.587-3.426a1.414 1.414 0 00-.407-1.252L21.44 8.53a.353.353 0 01.196-.604l3.443-.503a1.415 1.415 0 001.065-.774l1.54-3.119zm20 0a.353.353 0 01.634 0l1.54 3.12a1.415 1.415 0 001.063.773l3.444.504a.353.353 0 01.196.602l-2.49 2.426a1.416 1.416 0 00-.408 1.252l.588 3.426a.354.354 0 01-.514.374l-3.079-1.619a1.415 1.415 0 00-1.315 0l-3.078 1.619a.353.353 0 01-.513-.374l.587-3.426a1.414 1.414 0 00-.407-1.252L41.44 8.53a.353.353 0 01.196-.604l3.443-.503a1.415 1.415 0 001.065-.774l1.54-3.119zm20 0a.353.353 0 01.634 0l1.54 3.12a1.415 1.415 0 001.063.773l3.444.504a.353.353 0 01.196.602l-2.49 2.426a1.416 1.416 0 00-.408 1.252l.588 3.426a.354.354 0 01-.514.374l-3.079-1.619a1.415 1.415 0 00-1.315 0l-3.078 1.619a.353.353 0 01-.513-.374l.587-3.426a1.414 1.414 0 00-.407-1.252L61.44 8.53a.353.353 0 01.196-.604l3.443-.503a1.415 1.415 0 001.065-.774l1.54-3.119z" fill="#F5AB00" stroke="#F5AB00" stroke-width="1.333" stroke-linecap="round" stroke-linejoin="round"/><path d="M87.683 3.53a.353.353 0 01.634 0l1.54 3.12a1.415 1.415 0 001.063.773l3.444.504a.353.353 0 01.196.602l-2.49 2.426a1.416 1.416 0 00-.408 1.252l.588 3.426a.354.354 0 01-.514.374l-3.079-1.619a1.415 1.415 0 00-1.315 0l-3.078 1.619a.353.353 0 01-.513-.374l.587-3.426a1.414 1.414 0 00-.407-1.252L81.44 8.53a.353.353 0 01.196-.604l3.443-.503a1.415 1.415 0 001.065-.774l1.54-3.119z" fill="#F5AB00" fill-opacity=".5" stroke="#F5AB00" stroke-width="1.333" stroke-linecap="round" stroke-linejoin="round"/><path d="M105.491 10.41c0-1.254.163-2.405.488-3.456a10.761 10.761 0 011.402-2.909h1.034a6.34 6.34 0 00-.671 1.214 11.65 11.65 0 00-.542 1.576c-.156.57-.279 1.16-.368 1.77-.086.61-.129 1.21-.129 1.804 0 .789.076 1.59.228 2.401.153.812.358 1.566.617 2.262.258.697.547 1.263.865 1.7h-1.034a10.777 10.777 0 01-1.402-2.903c-.325-1.054-.488-2.207-.488-3.46zm7.746 5.23c-.683 0-1.286-.122-1.809-.364-.521-.245-.927-.581-1.218-1.009a2.535 2.535 0 01-.433-1.471 2.702 2.702 0 01.96-2.114 2.16 2.16 0 011.009-.472v-.06a1.97 1.97 0 01-1.164-.82 2.49 2.49 0 01-.427-1.446c-.003-.518.127-.98.393-1.388a2.764 2.764 0 011.093-.964c.468-.235 1-.353 1.596-.353.59 0 1.117.118 1.581.353.464.235.829.557 1.094.964.268.408.404.87.408 1.388a2.524 2.524 0 01-.443 1.446 1.957 1.957 0 01-1.148.82v.06c.368.066.699.224.994.472.295.246.53.552.706.92.176.365.265.763.268 1.194a2.569 2.569 0 01-.447 1.471c-.292.428-.698.764-1.218 1.01-.517.241-1.115.362-1.795.362zm0-1.095c.461 0 .859-.074 1.193-.223.335-.15.594-.36.776-.632a1.7 1.7 0 00.278-.954 1.825 1.825 0 00-.298-1.02 2.019 2.019 0 00-.8-.695 2.517 2.517 0 00-1.149-.254c-.434 0-.822.085-1.163.254a2.029 2.029 0 00-.801.696 1.8 1.8 0 00-.283 1.019 1.67 1.67 0 00.264.954c.182.272.442.483.78.632.338.149.739.224 1.203.224zm0-4.832c.365 0 .688-.073.97-.219.285-.146.508-.35.671-.611.162-.262.245-.569.248-.92a1.695 1.695 0 00-.243-.9 1.583 1.583 0 00-.661-.596 2.155 2.155 0 00-.985-.214 2.2 2.2 0 00-.999.214 1.538 1.538 0 00-.661.596 1.662 1.662 0 00-.229.9 1.71 1.71 0 00.234.92c.162.262.386.465.671.611.285.146.613.22.984.22zm8.457-4.534c.418.003.835.083 1.253.239a3.05 3.05 0 011.143.775c.345.358.622.847.83 1.467.209.62.314 1.397.314 2.331 0 .905-.087 1.709-.259 2.412-.169.699-.414 1.289-.736 1.77a3.26 3.26 0 01-1.163 1.093 3.156 3.156 0 01-1.541.373c-.57 0-1.079-.112-1.526-.338a2.99 2.99 0 01-1.094-.95 3.296 3.296 0 01-.542-1.416h1.213c.109.467.326.853.651 1.158.328.302.761.453 1.298.453.785 0 1.405-.344 1.859-1.03.458-.686.686-1.655.686-2.908h-.079a3.114 3.114 0 01-.662.72 2.904 2.904 0 01-.85.468 2.98 2.98 0 01-.994.164 3.095 3.095 0 01-1.606-.432 3.283 3.283 0 01-1.163-1.199c-.288-.51-.433-1.093-.433-1.75 0-.623.14-1.193.418-1.71a3.24 3.24 0 011.183-1.243c.511-.308 1.11-.457 1.8-.447zm0 1.094a2.09 2.09 0 00-1.129.313 2.25 2.25 0 00-.79.835 2.358 2.358 0 00-.288 1.159c0 .424.092.81.278 1.158.189.345.446.62.771.825a2.09 2.09 0 001.118.303c.315 0 .608-.06.88-.184.272-.125.509-.296.711-.511a2.49 2.49 0 00.482-.741 2.28 2.28 0 00-.114-1.989 2.289 2.289 0 00-.786-.845 2.031 2.031 0 00-1.133-.323zm5.344 9.227v-.895l3.361-3.679c.395-.43.719-.805.975-1.123.255-.322.444-.624.566-.905a2.19 2.19 0 00.189-.895c0-.358-.086-.668-.258-.93a1.677 1.677 0 00-.696-.606 2.259 2.259 0 00-.995-.214c-.391 0-.732.081-1.024.243-.288.16-.512.383-.671.672a2.1 2.1 0 00-.234 1.014h-1.173c0-.597.138-1.12.413-1.571a2.864 2.864 0 011.123-1.054 3.39 3.39 0 011.606-.378c.597 0 1.125.126 1.586.378.461.252.822.591 1.084 1.019.262.428.393.903.393 1.427 0 .374-.068.74-.204 1.099-.133.354-.365.75-.696 1.188-.328.434-.784.964-1.367 1.59l-2.287 2.447v.08h4.733V15.5h-6.424zm10.852-5.09c0 1.252-.164 2.405-.492 3.46a10.705 10.705 0 01-1.397 2.903h-1.034a6.3 6.3 0 00.666-1.213 11.49 11.49 0 00.547-1.571 14.43 14.43 0 00.363-1.775c.089-.613.134-1.215.134-1.805 0-.789-.076-1.59-.229-2.401a13.816 13.816 0 00-.616-2.262c-.259-.696-.547-1.263-.865-1.7h1.034a10.69 10.69 0 011.397 2.908c.328 1.05.492 2.202.492 3.455z" fill="#4A5565"/></svg>