<svg width="17" height="16" viewBox="0 0 17 16" fill="none" xmlns="http://www.w3.org/2000/svg">
<path d="M5.84117 14.6667C6.20936 14.6667 6.50783 14.3682 6.50783 14C6.50783 13.6318 6.20936 13.3333 5.84117 13.3333C5.47298 13.3333 5.1745 13.6318 5.1745 14C5.1745 14.3682 5.47298 14.6667 5.84117 14.6667Z" stroke="#0A0A0A" stroke-width="1.33333" stroke-linecap="round" stroke-linejoin="round"/>
<path d="M13.1745 14.6667C13.5427 14.6667 13.8411 14.3682 13.8411 14C13.8411 13.6318 13.5427 13.3333 13.1745 13.3333C12.8063 13.3333 12.5078 13.6318 12.5078 14C12.5078 14.3682 12.8063 14.6667 13.1745 14.6667Z" stroke="#0A0A0A" stroke-width="1.33333" stroke-linecap="round" stroke-linejoin="round"/>
<path d="M1.87445 1.36667H3.20778L4.98112 9.64667C5.04617 9.94991 5.2149 10.221 5.45826 10.4132C5.70162 10.6055 6.00439 10.7069 6.31445 10.7H12.8345C13.1379 10.6995 13.4321 10.5955 13.6685 10.4052C13.9048 10.2149 14.0692 9.94969 14.1345 9.65333L15.2345 4.7H3.92112" stroke="#0A0A0A" stroke-width="1.33333" stroke-linecap="round" stroke-linejoin="round"/>
</svg>
