<svg width="124" height="19" viewBox="0 0 124 19" fill="none" xmlns="http://www.w3.org/2000/svg">
<path d="M12.5909 6.1875C12.4716 5.77273 12.304 5.40625 12.0881 5.08807C11.8722 4.7642 11.608 4.49148 11.2955 4.26989C10.9886 4.04261 10.6364 3.86932 10.2386 3.75C9.84659 3.63068 9.41193 3.57102 8.93466 3.57102C8.04261 3.57102 7.25852 3.79261 6.58239 4.23579C5.91193 4.67898 5.3892 5.32386 5.0142 6.17045C4.6392 7.01136 4.4517 8.03977 4.4517 9.25568C4.4517 10.4716 4.63636 11.5057 5.00568 12.358C5.375 13.2102 5.89773 13.8608 6.57386 14.3097C7.25 14.7528 8.0483 14.9744 8.96875 14.9744C9.80398 14.9744 10.517 14.8267 11.108 14.5312C11.7045 14.2301 12.1591 13.8068 12.4716 13.2614C12.7898 12.7159 12.9489 12.071 12.9489 11.3267L13.6989 11.4375H9.19886V8.65909H16.5028V10.858C16.5028 12.392 16.179 13.7102 15.5312 14.8125C14.8835 15.9091 13.9915 16.7557 12.8551 17.3523C11.7188 17.9432 10.4176 18.2386 8.9517 18.2386C7.31534 18.2386 5.87784 17.8778 4.6392 17.1562C3.40057 16.429 2.43466 15.3977 1.74148 14.0625C1.05398 12.7216 0.710227 11.1307 0.710227 9.28977C0.710227 7.875 0.914773 6.61364 1.32386 5.50568C1.73864 4.39205 2.31818 3.44886 3.0625 2.67614C3.80682 1.90341 4.6733 1.31534 5.66193 0.911931C6.65057 0.508522 7.72159 0.306818 8.875 0.306818C9.86364 0.306818 10.7841 0.451704 11.6364 0.741477C12.4886 1.02557 13.2443 1.42898 13.9034 1.9517C14.5682 2.47443 15.1108 3.09659 15.5312 3.81818C15.9517 4.53409 16.2216 5.32386 16.3409 6.1875H12.5909ZM25.2429 18.2557C23.8963 18.2557 22.7372 17.983 21.7656 17.4375C20.7997 16.8864 20.0554 16.108 19.5327 15.1023C19.0099 14.0909 18.7486 12.8949 18.7486 11.5142C18.7486 10.1676 19.0099 8.9858 19.5327 7.96875C20.0554 6.9517 20.7912 6.15909 21.7401 5.59091C22.6946 5.02273 23.8139 4.73864 25.098 4.73864C25.9616 4.73864 26.7656 4.87784 27.5099 5.15625C28.2599 5.42898 28.9134 5.84091 29.4702 6.39205C30.0327 6.94318 30.4702 7.63636 30.7827 8.47159C31.0952 9.30114 31.2514 10.2727 31.2514 11.3864V12.3835H20.1974V10.1335H27.8338C27.8338 9.6108 27.7202 9.14773 27.4929 8.74432C27.2656 8.34091 26.9503 8.02557 26.5469 7.7983C26.1491 7.56534 25.6861 7.44886 25.1577 7.44886C24.6065 7.44886 24.1179 7.5767 23.6918 7.83239C23.2713 8.08239 22.9418 8.42045 22.7031 8.84659C22.4645 9.26705 22.3423 9.7358 22.3366 10.2528V12.392C22.3366 13.0398 22.456 13.5994 22.6946 14.071C22.9389 14.5426 23.2827 14.9062 23.7259 15.1619C24.169 15.4176 24.6946 15.5455 25.3026 15.5455C25.706 15.5455 26.0753 15.4886 26.4105 15.375C26.7457 15.2614 27.0327 15.0909 27.2713 14.8636C27.5099 14.6364 27.6918 14.358 27.8168 14.0284L31.1747 14.25C31.0043 15.0568 30.6548 15.7614 30.1264 16.3636C29.6037 16.9602 28.9276 17.4261 28.098 17.7614C27.2741 18.0909 26.3224 18.2557 25.2429 18.2557ZM39.657 18.2557C38.3104 18.2557 37.1513 17.983 36.1797 17.4375C35.2138 16.8864 34.4695 16.108 33.9467 15.1023C33.424 14.0909 33.1626 12.8949 33.1626 11.5142C33.1626 10.1676 33.424 8.9858 33.9467 7.96875C34.4695 6.9517 35.2053 6.15909 36.1541 5.59091C37.1087 5.02273 38.228 4.73864 39.5121 4.73864C40.3757 4.73864 41.1797 4.87784 41.924 5.15625C42.674 5.42898 43.3274 5.84091 43.8842 6.39205C44.4467 6.94318 44.8842 7.63636 45.1967 8.47159C45.5092 9.30114 45.6655 10.2727 45.6655 11.3864V12.3835H34.6115V10.1335H42.2479C42.2479 9.6108 42.1342 9.14773 41.907 8.74432C41.6797 8.34091 41.3643 8.02557 40.9609 7.7983C40.5632 7.56534 40.1001 7.44886 39.5717 7.44886C39.0206 7.44886 38.532 7.5767 38.1058 7.83239C37.6854 8.08239 37.3558 8.42045 37.1172 8.84659C36.8786 9.26705 36.7564 9.7358 36.7507 10.2528V12.392C36.7507 13.0398 36.87 13.5994 37.1087 14.071C37.353 14.5426 37.6967 14.9062 38.1399 15.1619C38.5831 15.4176 39.1087 15.5455 39.7166 15.5455C40.12 15.5455 40.4893 15.4886 40.8246 15.375C41.1598 15.2614 41.4467 15.0909 41.6854 14.8636C41.924 14.6364 42.1058 14.358 42.2308 14.0284L45.5888 14.25C45.4183 15.0568 45.0689 15.7614 44.5405 16.3636C44.0178 16.9602 43.3416 17.4261 42.5121 17.7614C41.6882 18.0909 40.7365 18.2557 39.657 18.2557ZM51.3949 14.233L51.4034 9.87784H51.9318L56.125 4.90909H60.2926L54.6591 11.4886H53.7983L51.3949 14.233ZM48.1051 18V0.545454H51.7358V18H48.1051ZM56.2869 18L52.4347 12.2983L54.8551 9.73295L60.5398 18H56.2869ZM71.6811 5.56534C71.6129 4.87784 71.3203 4.34375 70.8033 3.96307C70.2862 3.58239 69.5845 3.39204 68.6982 3.39204C68.0959 3.39204 67.5874 3.47727 67.1726 3.64773C66.7578 3.8125 66.4396 4.04261 66.218 4.33807C66.0021 4.63352 65.8942 4.96875 65.8942 5.34375C65.8828 5.65625 65.9482 5.92898 66.0902 6.16193C66.2379 6.39489 66.4396 6.59659 66.6953 6.76705C66.951 6.93182 67.2464 7.0767 67.5817 7.2017C67.9169 7.32102 68.2749 7.4233 68.6555 7.50852L70.2237 7.88352C70.9851 8.05398 71.6839 8.28125 72.3203 8.56534C72.9567 8.84943 73.5078 9.19886 73.9737 9.61364C74.4396 10.0284 74.8004 10.517 75.0561 11.0795C75.3175 11.642 75.451 12.2869 75.4567 13.0142C75.451 14.0824 75.1783 15.0085 74.6385 15.7926C74.1044 16.571 73.3317 17.1761 72.3203 17.608C71.3146 18.0341 70.1016 18.2472 68.6811 18.2472C67.272 18.2472 66.0447 18.0312 64.9993 17.5994C63.9595 17.1676 63.147 16.5284 62.5618 15.6818C61.9822 14.8295 61.6783 13.7756 61.6499 12.5199H65.2209C65.2607 13.1051 65.4283 13.5937 65.7237 13.9858C66.0249 14.3722 66.4254 14.6648 66.9254 14.8636C67.4311 15.0568 68.0021 15.1534 68.6385 15.1534C69.2635 15.1534 69.8061 15.0625 70.2663 14.8807C70.7322 14.6989 71.093 14.446 71.3487 14.1222C71.6044 13.7983 71.7322 13.4261 71.7322 13.0057C71.7322 12.6136 71.6158 12.2841 71.3828 12.017C71.1555 11.75 70.8203 11.5227 70.3771 11.3352C69.9396 11.1477 69.4027 10.9773 68.7663 10.8239L66.8658 10.3466C65.3942 9.98864 64.2322 9.42898 63.38 8.66761C62.5277 7.90625 62.1044 6.88068 62.1101 5.59091C62.1044 4.53409 62.3857 3.6108 62.9538 2.82102C63.5277 2.03125 64.3146 1.41477 65.3146 0.971591C66.3146 0.528409 67.451 0.306818 68.7237 0.306818C70.0192 0.306818 71.1499 0.528409 72.1158 0.971591C73.0874 1.41477 73.843 2.03125 74.3828 2.82102C74.9226 3.6108 75.201 4.52557 75.218 5.56534H71.6811ZM84.9041 4.90909V7.63636H77.0206V4.90909H84.9041ZM78.8104 1.77273H82.4411V13.9773C82.4411 14.3125 82.4922 14.5739 82.5945 14.7614C82.6967 14.9432 82.8388 15.071 83.0206 15.1449C83.2081 15.2187 83.424 15.2557 83.6683 15.2557C83.8388 15.2557 84.0092 15.2415 84.1797 15.2131C84.3501 15.179 84.4808 15.1534 84.5717 15.1364L85.1428 17.8381C84.9609 17.8949 84.7053 17.9602 84.3757 18.0341C84.0462 18.1136 83.6456 18.1619 83.174 18.179C82.299 18.2131 81.532 18.0966 80.8729 17.8295C80.2195 17.5625 79.7109 17.1477 79.3473 16.5852C78.9837 16.0227 78.8047 15.3125 78.8104 14.4545V1.77273ZM93.1136 18.2557C91.7898 18.2557 90.6449 17.9744 89.679 17.4119C88.7188 16.8437 87.9773 16.054 87.4545 15.0426C86.9318 14.0256 86.6705 12.8466 86.6705 11.5057C86.6705 10.1534 86.9318 8.97159 87.4545 7.96023C87.9773 6.94318 88.7188 6.15341 89.679 5.59091C90.6449 5.02273 91.7898 4.73864 93.1136 4.73864C94.4375 4.73864 95.5795 5.02273 96.5398 5.59091C97.5057 6.15341 98.25 6.94318 98.7727 7.96023C99.2955 8.97159 99.5568 10.1534 99.5568 11.5057C99.5568 12.8466 99.2955 14.0256 98.7727 15.0426C98.25 16.054 97.5057 16.8437 96.5398 17.4119C95.5795 17.9744 94.4375 18.2557 93.1136 18.2557ZM93.1307 15.4432C93.733 15.4432 94.2358 15.2727 94.6392 14.9318C95.0426 14.5852 95.3466 14.1136 95.5511 13.517C95.7614 12.9205 95.8665 12.2415 95.8665 11.4801C95.8665 10.7188 95.7614 10.0398 95.5511 9.44318C95.3466 8.84659 95.0426 8.375 94.6392 8.02841C94.2358 7.68182 93.733 7.50852 93.1307 7.50852C92.5227 7.50852 92.0114 7.68182 91.5966 8.02841C91.1875 8.375 90.8778 8.84659 90.6676 9.44318C90.4631 10.0398 90.3608 10.7188 90.3608 11.4801C90.3608 12.2415 90.4631 12.9205 90.6676 13.517C90.8778 14.1136 91.1875 14.5852 91.5966 14.9318C92.0114 15.2727 92.5227 15.4432 93.1307 15.4432ZM101.988 18V4.90909H105.508V7.19318H105.644C105.883 6.38068 106.283 5.76705 106.846 5.35227C107.408 4.93182 108.056 4.72159 108.789 4.72159C108.971 4.72159 109.167 4.73295 109.377 4.75568C109.587 4.77841 109.772 4.80966 109.931 4.84943V8.07102C109.761 8.01989 109.525 7.97443 109.224 7.93466C108.923 7.89489 108.647 7.875 108.397 7.875C107.863 7.875 107.386 7.99148 106.965 8.22443C106.55 8.4517 106.221 8.76989 105.977 9.17898C105.738 9.58807 105.619 10.0597 105.619 10.5938V18H101.988ZM117.235 18.2557C115.888 18.2557 114.729 17.983 113.758 17.4375C112.792 16.8864 112.048 16.108 111.525 15.1023C111.002 14.0909 110.741 12.8949 110.741 11.5142C110.741 10.1676 111.002 8.9858 111.525 7.96875C112.048 6.9517 112.783 6.15909 113.732 5.59091C114.687 5.02273 115.806 4.73864 117.09 4.73864C117.954 4.73864 118.758 4.87784 119.502 5.15625C120.252 5.42898 120.906 5.84091 121.462 6.39205C122.025 6.94318 122.462 7.63636 122.775 8.47159C123.087 9.30114 123.244 10.2727 123.244 11.3864V12.3835H112.19V10.1335H119.826C119.826 9.6108 119.712 9.14773 119.485 8.74432C119.258 8.34091 118.942 8.02557 118.539 7.7983C118.141 7.56534 117.678 7.44886 117.15 7.44886C116.599 7.44886 116.11 7.5767 115.684 7.83239C115.263 8.08239 114.934 8.42045 114.695 8.84659C114.457 9.26705 114.335 9.7358 114.329 10.2528V12.392C114.329 13.0398 114.448 13.5994 114.687 14.071C114.931 14.5426 115.275 14.9062 115.718 15.1619C116.161 15.4176 116.687 15.5455 117.295 15.5455C117.698 15.5455 118.067 15.4886 118.403 15.375C118.738 15.2614 119.025 15.0909 119.263 14.8636C119.502 14.6364 119.684 14.358 119.809 14.0284L123.167 14.25C122.996 15.0568 122.647 15.7614 122.119 16.3636C121.596 16.9602 120.92 17.4261 120.09 17.7614C119.266 18.0909 118.315 18.2557 117.235 18.2557Z" fill="#09235C"/>
</svg>
