<svg width="21" height="21" viewBox="0 0 21 21" fill="none" xmlns="http://www.w3.org/2000/svg">
<path d="M17.1666 8.83341C17.1666 12.9942 12.5508 17.3276 11.0008 18.6659C10.8564 18.7745 10.6806 18.8332 10.5 18.8332C10.3193 18.8332 10.1435 18.7745 9.99915 18.6659C8.44915 17.3276 3.83331 12.9942 3.83331 8.83341C3.83331 7.0653 4.53569 5.36961 5.78593 4.11937C7.03618 2.86913 8.73187 2.16675 10.5 2.16675C12.2681 2.16675 13.9638 2.86913 15.214 4.11937C16.4643 5.36961 17.1666 7.0653 17.1666 8.83341Z" stroke="#F5AB00" stroke-width="1.66667" stroke-linecap="round" stroke-linejoin="round"/>
<path d="M10.5 11.3333C11.8807 11.3333 13 10.214 13 8.83325C13 7.45254 11.8807 6.33325 10.5 6.33325C9.11929 6.33325 8 7.45254 8 8.83325C8 10.214 9.11929 11.3333 10.5 11.3333Z" stroke="#F5AB00" stroke-width="1.66667" stroke-linecap="round" stroke-linejoin="round"/>
</svg>
