<svg width="17" height="16" viewBox="0 0 17 16" fill="none" xmlns="http://www.w3.org/2000/svg">
<g clip-path="url(#clip0_213_33)">
<path d="M6.21614 14.6667C6.58433 14.6667 6.88281 14.3682 6.88281 14C6.88281 13.6319 6.58433 13.3334 6.21614 13.3334C5.84795 13.3334 5.54948 13.6319 5.54948 14C5.54948 14.3682 5.84795 14.6667 6.21614 14.6667Z" stroke="white" stroke-width="1.33333" stroke-linecap="round" stroke-linejoin="round"/>
<path d="M13.5495 14.6667C13.9177 14.6667 14.2161 14.3682 14.2161 14C14.2161 13.6319 13.9177 13.3334 13.5495 13.3334C13.1813 13.3334 12.8828 13.6319 12.8828 14C12.8828 14.3682 13.1813 14.6667 13.5495 14.6667Z" stroke="white" stroke-width="1.33333" stroke-linecap="round" stroke-linejoin="round"/>
<path d="M2.24947 1.3667H3.58281L5.35614 9.6467C5.42119 9.94994 5.58992 10.221 5.83328 10.4133C6.07664 10.6055 6.37941 10.7069 6.68947 10.7H13.2095C13.5129 10.6995 13.8071 10.5956 14.0435 10.4053C14.2799 10.215 14.4442 9.94972 14.5095 9.65336L15.6095 4.70003H4.29614" stroke="white" stroke-width="1.33333" stroke-linecap="round" stroke-linejoin="round"/>
</g>
<defs>
<clipPath id="clip0_213_33">
<rect width="16" height="16" fill="white" transform="translate(0.882812)"/>
</clipPath>
</defs>
</svg>
