<svg width="17" height="17" viewBox="0 0 17 17" fill="none" xmlns="http://www.w3.org/2000/svg">
<path d="M11.8333 1.83325H5.16667C3.32572 1.83325 1.83334 3.32564 1.83334 5.16658V11.8333C1.83334 13.6742 3.32572 15.1666 5.16667 15.1666H11.8333C13.6743 15.1666 15.1667 13.6742 15.1667 11.8333V5.16658C15.1667 3.32564 13.6743 1.83325 11.8333 1.83325Z" stroke="white" stroke-width="1.33333" stroke-linecap="round" stroke-linejoin="round"/>
<path d="M11.1667 8.07996C11.2489 8.63479 11.1542 9.20143 10.8958 9.6993C10.6375 10.1972 10.2288 10.6009 9.72775 10.8531C9.22674 11.1052 8.65897 11.193 8.10519 11.1039C7.55142 11.0148 7.03984 10.7533 6.64323 10.3567C6.24661 9.96012 5.98516 9.44854 5.89605 8.89477C5.80694 8.34099 5.89471 7.77322 6.14688 7.27221C6.39906 6.77119 6.80279 6.36245 7.30066 6.10412C7.79852 5.84579 8.36517 5.75102 8.92 5.83329C9.48595 5.91721 10.0099 6.18093 10.4145 6.58549C10.819 6.99006 11.0827 7.51401 11.1667 8.07996Z" stroke="white" stroke-width="1.33333" stroke-linecap="round" stroke-linejoin="round"/>
<path d="M12.1667 4.83325H12.1733" stroke="white" stroke-width="1.33333" stroke-linecap="round" stroke-linejoin="round"/>
</svg>
