<svg width="21" height="21" viewBox="0 0 21 21" fill="none" xmlns="http://www.w3.org/2000/svg">
<path d="M12.0267 14.3067C12.1988 14.3858 12.3927 14.4038 12.5764 14.3579C12.7602 14.3121 12.9228 14.2049 13.0375 14.0542L13.3334 13.6667C13.4886 13.4598 13.6899 13.2917 13.9213 13.176C14.1528 13.0603 14.4079 13.0001 14.6667 13.0001H17.1667C17.6087 13.0001 18.0326 13.1757 18.3452 13.4882C18.6578 13.8008 18.8334 14.2247 18.8334 14.6667V17.1667C18.8334 17.6088 18.6578 18.0327 18.3452 18.3453C18.0326 18.6578 17.6087 18.8334 17.1667 18.8334C13.1884 18.8334 9.37313 17.2531 6.56009 14.44C3.74704 11.627 2.16669 7.81166 2.16669 3.83341C2.16669 3.39139 2.34228 2.96746 2.65484 2.6549C2.9674 2.34234 3.39133 2.16675 3.83335 2.16675H6.33335C6.77538 2.16675 7.1993 2.34234 7.51186 2.6549C7.82443 2.96746 8.00002 3.39139 8.00002 3.83341V6.33341C8.00002 6.59216 7.93978 6.84734 7.82407 7.07877C7.70835 7.3102 7.54035 7.5115 7.33335 7.66675L6.94335 7.95925C6.79037 8.07606 6.68254 8.24224 6.63818 8.42954C6.59382 8.61684 6.61567 8.81373 6.70002 8.98675C7.83892 11.3 9.71204 13.1707 12.0267 14.3067Z" stroke="#F5AB00" stroke-width="1.66667" stroke-linecap="round" stroke-linejoin="round"/>
</svg>
