<svg width="196" height="20" viewBox="0 0 196 20" fill="none" xmlns="http://www.w3.org/2000/svg">
<path d="M7.68335 3.52997C7.71257 3.47094 7.7577 3.42126 7.81365 3.38652C7.86961 3.35178 7.93416 3.33337 8.00002 3.33337C8.06588 3.33337 8.13043 3.35178 8.18638 3.38652C8.24234 3.42126 8.28747 3.47094 8.31669 3.52997L9.85669 6.6493C9.95814 6.85461 10.1079 7.03224 10.2931 7.16694C10.4783 7.30164 10.6934 7.38938 10.92 7.42264L14.364 7.92664C14.4293 7.93609 14.4906 7.96362 14.541 8.0061C14.5914 8.04859 14.629 8.10434 14.6494 8.16704C14.6698 8.22975 14.6722 8.29691 14.6564 8.36093C14.6406 8.42495 14.6072 8.48327 14.56 8.5293L12.0694 10.9546C11.9051 11.1147 11.7822 11.3123 11.7112 11.5304C11.6403 11.7485 11.6234 11.9806 11.662 12.2066L12.25 15.6333C12.2615 15.6985 12.2545 15.7657 12.2297 15.8271C12.2049 15.8885 12.1633 15.9417 12.1097 15.9806C12.0561 16.0196 11.9927 16.0426 11.9266 16.0472C11.8605 16.0518 11.7945 16.0378 11.736 16.0066L8.65735 14.388C8.4545 14.2815 8.22881 14.2258 7.99969 14.2258C7.77057 14.2258 7.54487 14.2815 7.34202 14.388L4.26402 16.0066C4.20557 16.0376 4.13962 16.0515 4.07365 16.0468C4.00769 16.0421 3.94437 16.019 3.89088 15.9801C3.8374 15.9412 3.79591 15.8881 3.77112 15.8268C3.74634 15.7655 3.73926 15.6984 3.75069 15.6333L4.33802 12.2073C4.37682 11.9811 4.36001 11.7489 4.28904 11.5307C4.21808 11.3124 4.09509 11.1147 3.93069 10.9546L1.44002 8.52997C1.39242 8.48399 1.35868 8.42557 1.34266 8.36135C1.32664 8.29714 1.32898 8.22971 1.34941 8.16676C1.36983 8.10381 1.40753 8.04786 1.4582 8.00529C1.50888 7.96272 1.57049 7.93524 1.63602 7.92597L5.07935 7.42264C5.30619 7.38964 5.52161 7.30201 5.70708 7.16729C5.89254 7.03258 6.04249 6.85482 6.14402 6.6493L7.68335 3.52997Z" fill="#F5AB00" stroke="#F5AB00" stroke-width="1.33333" stroke-linecap="round" stroke-linejoin="round"/>
<path d="M27.6834 3.52997C27.7126 3.47094 27.7577 3.42126 27.8137 3.38652C27.8696 3.35178 27.9342 3.33337 28 3.33337C28.0659 3.33337 28.1304 3.35178 28.1864 3.38652C28.2423 3.42126 28.2875 3.47094 28.3167 3.52997L29.8567 6.6493C29.9581 6.85461 30.1079 7.03224 30.2931 7.16694C30.4783 7.30164 30.6934 7.38938 30.92 7.42264L34.364 7.92664C34.4293 7.93609 34.4906 7.96362 34.541 8.0061C34.5914 8.04859 34.629 8.10434 34.6494 8.16704C34.6698 8.22975 34.6722 8.29691 34.6564 8.36093C34.6406 8.42495 34.6072 8.48327 34.56 8.5293L32.0694 10.9546C31.9051 11.1147 31.7822 11.3123 31.7112 11.5304C31.6403 11.7485 31.6234 11.9806 31.662 12.2066L32.25 15.6333C32.2615 15.6985 32.2545 15.7657 32.2297 15.8271C32.2049 15.8885 32.1633 15.9417 32.1097 15.9806C32.0561 16.0196 31.9927 16.0426 31.9266 16.0472C31.8605 16.0518 31.7945 16.0378 31.736 16.0066L28.6574 14.388C28.4545 14.2815 28.2288 14.2258 27.9997 14.2258C27.7706 14.2258 27.5449 14.2815 27.342 14.388L24.264 16.0066C24.2056 16.0376 24.1396 16.0515 24.0737 16.0468C24.0077 16.0421 23.9444 16.019 23.8909 15.9801C23.8374 15.9412 23.7959 15.8881 23.7711 15.8268C23.7463 15.7655 23.7393 15.6984 23.7507 15.6333L24.338 12.2073C24.3768 11.9811 24.36 11.7489 24.289 11.5307C24.2181 11.3124 24.0951 11.1147 23.9307 10.9546L21.44 8.52997C21.3924 8.48399 21.3587 8.42557 21.3427 8.36135C21.3266 8.29714 21.329 8.22971 21.3494 8.16676C21.3698 8.10381 21.4075 8.04786 21.4582 8.00529C21.5089 7.96272 21.5705 7.93524 21.636 7.92597L25.0794 7.42264C25.3062 7.38964 25.5216 7.30201 25.7071 7.16729C25.8925 7.03258 26.0425 6.85482 26.144 6.6493L27.6834 3.52997Z" fill="#F5AB00" stroke="#F5AB00" stroke-width="1.33333" stroke-linecap="round" stroke-linejoin="round"/>
<path d="M47.6834 3.52997C47.7126 3.47094 47.7577 3.42126 47.8137 3.38652C47.8696 3.35178 47.9342 3.33337 48 3.33337C48.0659 3.33337 48.1304 3.35178 48.1864 3.38652C48.2423 3.42126 48.2875 3.47094 48.3167 3.52997L49.8567 6.6493C49.9581 6.85461 50.1079 7.03224 50.2931 7.16694C50.4783 7.30164 50.6934 7.38938 50.92 7.42264L54.364 7.92664C54.4293 7.93609 54.4906 7.96362 54.541 8.0061C54.5914 8.04859 54.629 8.10434 54.6494 8.16704C54.6698 8.22975 54.6722 8.29691 54.6564 8.36093C54.6406 8.42495 54.6072 8.48327 54.56 8.5293L52.0694 10.9546C51.9051 11.1147 51.7822 11.3123 51.7112 11.5304C51.6403 11.7485 51.6234 11.9806 51.662 12.2066L52.25 15.6333C52.2615 15.6985 52.2545 15.7657 52.2297 15.8271C52.2049 15.8885 52.1633 15.9417 52.1097 15.9806C52.0561 16.0196 51.9927 16.0426 51.9266 16.0472C51.8605 16.0518 51.7945 16.0378 51.736 16.0066L48.6574 14.388C48.4545 14.2815 48.2288 14.2258 47.9997 14.2258C47.7706 14.2258 47.5449 14.2815 47.342 14.388L44.264 16.0066C44.2056 16.0376 44.1396 16.0515 44.0737 16.0468C44.0077 16.0421 43.9444 16.019 43.8909 15.9801C43.8374 15.9412 43.7959 15.8881 43.7711 15.8268C43.7463 15.7655 43.7393 15.6984 43.7507 15.6333L44.338 12.2073C44.3768 11.9811 44.36 11.7489 44.289 11.5307C44.2181 11.3124 44.0951 11.1147 43.9307 10.9546L41.44 8.52997C41.3924 8.48399 41.3587 8.42557 41.3427 8.36135C41.3266 8.29714 41.329 8.22971 41.3494 8.16676C41.3698 8.10381 41.4075 8.04786 41.4582 8.00529C41.5089 7.96272 41.5705 7.93524 41.636 7.92597L45.0794 7.42264C45.3062 7.38964 45.5216 7.30201 45.7071 7.16729C45.8925 7.03258 46.0425 6.85482 46.144 6.6493L47.6834 3.52997Z" fill="#F5AB00" stroke="#F5AB00" stroke-width="1.33333" stroke-linecap="round" stroke-linejoin="round"/>
<path d="M67.6834 3.52997C67.7126 3.47094 67.7577 3.42126 67.8137 3.38652C67.8696 3.35178 67.9342 3.33337 68 3.33337C68.0659 3.33337 68.1304 3.35178 68.1864 3.38652C68.2423 3.42126 68.2875 3.47094 68.3167 3.52997L69.8567 6.6493C69.9581 6.85461 70.1079 7.03224 70.2931 7.16694C70.4783 7.30164 70.6934 7.38938 70.92 7.42264L74.364 7.92664C74.4293 7.93609 74.4906 7.96362 74.541 8.0061C74.5914 8.04859 74.629 8.10434 74.6494 8.16704C74.6698 8.22975 74.6722 8.29691 74.6564 8.36093C74.6406 8.42495 74.6072 8.48327 74.56 8.5293L72.0694 10.9546C71.9051 11.1147 71.7822 11.3123 71.7112 11.5304C71.6403 11.7485 71.6234 11.9806 71.662 12.2066L72.25 15.6333C72.2615 15.6985 72.2545 15.7657 72.2297 15.8271C72.2049 15.8885 72.1633 15.9417 72.1097 15.9806C72.0561 16.0196 71.9927 16.0426 71.9266 16.0472C71.8605 16.0518 71.7945 16.0378 71.736 16.0066L68.6574 14.388C68.4545 14.2815 68.2288 14.2258 67.9997 14.2258C67.7706 14.2258 67.5449 14.2815 67.342 14.388L64.264 16.0066C64.2056 16.0376 64.1396 16.0515 64.0737 16.0468C64.0077 16.0421 63.9444 16.019 63.8909 15.9801C63.8374 15.9412 63.7959 15.8881 63.7711 15.8268C63.7463 15.7655 63.7393 15.6984 63.7507 15.6333L64.338 12.2073C64.3768 11.9811 64.36 11.7489 64.289 11.5307C64.2181 11.3124 64.0951 11.1147 63.9307 10.9546L61.44 8.52997C61.3924 8.48399 61.3587 8.42557 61.3427 8.36135C61.3266 8.29714 61.329 8.22971 61.3494 8.16676C61.3698 8.10381 61.4075 8.04786 61.4582 8.00529C61.5089 7.96272 61.5705 7.93524 61.636 7.92597L65.0794 7.42264C65.3062 7.38964 65.5216 7.30201 65.7071 7.16729C65.8925 7.03258 66.0425 6.85482 66.144 6.6493L67.6834 3.52997Z" fill="#F5AB00" stroke="#F5AB00" stroke-width="1.33333" stroke-linecap="round" stroke-linejoin="round"/>
<path d="M87.6834 3.52997C87.7126 3.47094 87.7577 3.42126 87.8137 3.38652C87.8696 3.35178 87.9342 3.33337 88 3.33337C88.0659 3.33337 88.1304 3.35178 88.1864 3.38652C88.2423 3.42126 88.2875 3.47094 88.3167 3.52997L89.8567 6.6493C89.9581 6.85461 90.1079 7.03224 90.2931 7.16694C90.4783 7.30164 90.6934 7.38938 90.92 7.42264L94.364 7.92664C94.4293 7.93609 94.4906 7.96362 94.541 8.0061C94.5914 8.04859 94.629 8.10434 94.6494 8.16704C94.6698 8.22975 94.6722 8.29691 94.6564 8.36093C94.6406 8.42495 94.6072 8.48327 94.56 8.5293L92.0694 10.9546C91.9051 11.1147 91.7822 11.3123 91.7112 11.5304C91.6403 11.7485 91.6234 11.9806 91.662 12.2066L92.25 15.6333C92.2615 15.6985 92.2545 15.7657 92.2297 15.8271C92.2049 15.8885 92.1633 15.9417 92.1097 15.9806C92.0561 16.0196 91.9927 16.0426 91.9266 16.0472C91.8605 16.0518 91.7945 16.0378 91.736 16.0066L88.6574 14.388C88.4545 14.2815 88.2288 14.2258 87.9997 14.2258C87.7706 14.2258 87.5449 14.2815 87.342 14.388L84.264 16.0066C84.2056 16.0376 84.1396 16.0515 84.0737 16.0468C84.0077 16.0421 83.9444 16.019 83.8909 15.9801C83.8374 15.9412 83.7959 15.8881 83.7711 15.8268C83.7463 15.7655 83.7393 15.6984 83.7507 15.6333L84.338 12.2073C84.3768 11.9811 84.36 11.7489 84.289 11.5307C84.2181 11.3124 84.0951 11.1147 83.9307 10.9546L81.44 8.52997C81.3924 8.48399 81.3587 8.42557 81.3427 8.36135C81.3266 8.29714 81.329 8.22971 81.3494 8.16676C81.3698 8.10381 81.4075 8.04786 81.4582 8.00529C81.5089 7.96272 81.5705 7.93524 81.636 7.92597L85.0794 7.42264C85.3062 7.38964 85.5216 7.30201 85.7071 7.16729C85.8925 7.03258 86.0425 6.85482 86.144 6.6493L87.6834 3.52997Z" fill="#F5AB00" fill-opacity="0.5" stroke="#F5AB00" stroke-width="1.33333" stroke-linecap="round" stroke-linejoin="round"/>
<path d="M105.491 10.4091C105.491 9.15625 105.654 8.0045 105.979 6.95383C106.307 5.89986 106.774 4.9304 107.381 4.04545H108.415C108.176 4.37358 107.952 4.77794 107.744 5.25852C107.538 5.7358 107.357 6.26113 107.202 6.83452C107.046 7.40459 106.923 7.99455 106.834 8.6044C106.748 9.21425 106.705 9.81581 106.705 10.4091C106.705 11.1979 106.781 11.9983 106.933 12.8104C107.086 13.6224 107.291 14.3764 107.55 15.0724C107.808 15.7685 108.097 16.3352 108.415 16.7727H107.381C106.774 15.8878 106.307 14.92 105.979 13.8693C105.654 12.8153 105.491 11.6619 105.491 10.4091ZM113.237 15.6392C112.554 15.6392 111.951 15.5182 111.428 15.2763C110.907 15.031 110.501 14.6946 110.21 14.267C109.918 13.8362 109.774 13.3456 109.777 12.7955C109.774 12.3646 109.858 11.9669 110.031 11.6023C110.203 11.2344 110.438 10.9278 110.737 10.6825C111.038 10.4339 111.375 10.2765 111.746 10.2102V10.1506C111.259 10.0246 110.871 9.75118 110.582 9.33026C110.294 8.90601 110.152 8.42377 110.155 7.88352C110.152 7.36648 110.282 6.90412 110.548 6.49645C110.813 6.08878 111.177 5.76728 111.641 5.53196C112.109 5.29664 112.641 5.17898 113.237 5.17898C113.827 5.17898 114.354 5.29664 114.818 5.53196C115.282 5.76728 115.647 6.08878 115.912 6.49645C116.18 6.90412 116.316 7.36648 116.32 7.88352C116.316 8.42377 116.169 8.90601 115.877 9.33026C115.589 9.75118 115.206 10.0246 114.729 10.1506V10.2102C115.097 10.2765 115.428 10.4339 115.723 10.6825C116.018 10.9278 116.253 11.2344 116.429 11.6023C116.605 11.9669 116.694 12.3646 116.697 12.7955C116.694 13.3456 116.545 13.8362 116.25 14.267C115.958 14.6946 115.552 15.031 115.032 15.2763C114.515 15.5182 113.917 15.6392 113.237 15.6392ZM113.237 14.5455C113.698 14.5455 114.096 14.4709 114.43 14.3217C114.765 14.1726 115.024 13.9621 115.206 13.6903C115.388 13.4186 115.481 13.1004 115.484 12.7358C115.481 12.3513 115.382 12.0116 115.186 11.7166C114.991 11.4216 114.724 11.1896 114.386 11.0206C114.051 10.8516 113.668 10.767 113.237 10.767C112.803 10.767 112.415 10.8516 112.074 11.0206C111.736 11.1896 111.469 11.4216 111.273 11.7166C111.081 12.0116 110.987 12.3513 110.99 12.7358C110.987 13.1004 111.075 13.4186 111.254 13.6903C111.436 13.9621 111.696 14.1726 112.034 14.3217C112.372 14.4709 112.773 14.5455 113.237 14.5455ZM113.237 9.71307C113.602 9.71307 113.925 9.64015 114.207 9.49432C114.492 9.34848 114.715 9.14465 114.878 8.88281C115.04 8.62098 115.123 8.31439 115.126 7.96307C115.123 7.61837 115.042 7.31842 114.883 7.06321C114.724 6.80469 114.503 6.60582 114.222 6.46662C113.94 6.3241 113.612 6.25284 113.237 6.25284C112.856 6.25284 112.523 6.3241 112.238 6.46662C111.953 6.60582 111.732 6.80469 111.577 7.06321C111.421 7.31842 111.345 7.61837 111.348 7.96307C111.345 8.31439 111.423 8.62098 111.582 8.88281C111.744 9.14465 111.968 9.34848 112.253 9.49432C112.538 9.64015 112.866 9.71307 113.237 9.71307ZM121.694 5.17898C122.112 5.18229 122.529 5.26184 122.947 5.41761C123.364 5.57339 123.746 5.83191 124.09 6.19318C124.435 6.55114 124.712 7.04001 124.92 7.6598C125.129 8.27959 125.234 9.05682 125.234 9.99148C125.234 10.8963 125.147 11.7 124.975 12.4027C124.806 13.102 124.561 13.692 124.239 14.1726C123.921 14.6532 123.533 15.0178 123.076 15.2663C122.622 15.5149 122.108 15.6392 121.535 15.6392C120.965 15.6392 120.456 15.5265 120.009 15.3011C119.564 15.0724 119.2 14.7559 118.915 14.3516C118.633 13.9439 118.452 13.4716 118.373 12.9347H119.586C119.695 13.402 119.912 13.7881 120.237 14.093C120.565 14.3946 120.998 14.5455 121.535 14.5455C122.32 14.5455 122.94 14.2024 123.394 13.5163C123.852 12.8303 124.08 11.8608 124.08 10.608H124.001C123.815 10.8864 123.595 11.1267 123.339 11.3288C123.084 11.531 122.801 11.6868 122.489 11.7962C122.178 11.9055 121.846 11.9602 121.495 11.9602C120.912 11.9602 120.376 11.8161 119.889 11.5277C119.405 11.236 119.018 10.8366 118.726 10.3295C118.438 9.81913 118.293 9.2358 118.293 8.57955C118.293 7.95644 118.433 7.38636 118.711 6.86932C118.993 6.34896 119.387 5.93466 119.894 5.62642C120.405 5.31818 121.004 5.16903 121.694 5.17898ZM121.694 6.27273C121.276 6.27273 120.9 6.37713 120.565 6.58594C120.234 6.79143 119.97 7.06984 119.775 7.42116C119.583 7.76918 119.487 8.1553 119.487 8.57955C119.487 9.00379 119.579 9.38991 119.765 9.73793C119.954 10.0826 120.211 10.3577 120.536 10.5632C120.864 10.7654 121.237 10.8665 121.654 10.8665C121.969 10.8665 122.262 10.8052 122.534 10.6825C122.806 10.5566 123.043 10.3859 123.245 10.1705C123.451 9.9517 123.611 9.70478 123.727 9.42969C123.843 9.15128 123.901 8.86127 123.901 8.55966C123.901 8.16193 123.805 7.78906 123.613 7.44105C123.424 7.09304 123.162 6.81132 122.827 6.59588C122.496 6.38044 122.118 6.27273 121.694 6.27273ZM127.038 15.5V14.6051L130.399 10.9261C130.794 10.4953 131.118 10.1207 131.374 9.80256C131.629 9.48106 131.818 9.17945 131.94 8.89773C132.066 8.61269 132.129 8.31439 132.129 8.00284C132.129 7.64489 132.043 7.33499 131.871 7.07315C131.702 6.81132 131.47 6.60914 131.175 6.46662C130.88 6.3241 130.548 6.25284 130.18 6.25284C129.789 6.25284 129.448 6.33404 129.156 6.49645C128.868 6.65554 128.644 6.87926 128.485 7.16761C128.329 7.45597 128.251 7.79403 128.251 8.18182H127.078C127.078 7.58523 127.216 7.06155 127.491 6.6108C127.766 6.16004 128.14 5.80871 128.614 5.55682C129.092 5.30492 129.627 5.17898 130.22 5.17898C130.817 5.17898 131.345 5.30492 131.806 5.55682C132.267 5.80871 132.628 6.14844 132.89 6.57599C133.152 7.00355 133.283 7.47917 133.283 8.00284C133.283 8.37737 133.215 8.74361 133.079 9.10156C132.946 9.4562 132.714 9.85227 132.383 10.2898C132.055 10.724 131.599 11.2543 131.016 11.8807L128.729 14.3267V14.4062H133.462V15.5H127.038ZM137.89 10.4091C137.89 11.6619 137.726 12.8153 137.398 13.8693C137.073 14.92 136.607 15.8878 136.001 16.7727H134.967C135.205 16.4446 135.427 16.0402 135.633 15.5597C135.842 15.0824 136.024 14.5587 136.18 13.9886C136.336 13.4152 136.457 12.8236 136.543 12.2138C136.632 11.6006 136.677 10.9991 136.677 10.4091C136.677 9.62026 136.601 8.81984 136.448 8.00781C136.296 7.19579 136.09 6.44176 135.832 5.74574C135.573 5.04972 135.285 4.48295 134.967 4.04545H136.001C136.607 4.9304 137.073 5.89986 137.398 6.95383C137.726 8.0045 137.89 9.15625 137.89 10.4091Z" fill="#4A5565"/>
</svg>
