<svg width="17" height="17" viewBox="0 0 17 17" fill="none" xmlns="http://www.w3.org/2000/svg">
<path d="M2.16667 11.8333C1.70095 9.63551 1.70095 7.36449 2.16667 5.16667C2.22786 4.94347 2.3461 4.74005 2.50974 4.5764C2.67339 4.41276 2.87681 4.29453 3.1 4.23333C6.67564 3.64097 10.3244 3.64097 13.9 4.23333C14.1232 4.29453 14.3266 4.41276 14.4903 4.5764C14.6539 4.74005 14.7721 4.94347 14.8333 5.16667C15.2991 7.36449 15.2991 9.63551 14.8333 11.8333C14.7721 12.0565 14.6539 12.2599 14.4903 12.4236C14.3266 12.5872 14.1232 12.7055 13.9 12.7667C10.3244 13.3591 6.67563 13.3591 3.1 12.7667C2.87681 12.7055 2.67339 12.5872 2.50974 12.4236C2.3461 12.2599 2.22786 12.0565 2.16667 11.8333Z" stroke="white" stroke-width="1.33333" stroke-linecap="round" stroke-linejoin="round"/>
<path d="M7.16667 10.5L10.5 8.5L7.16667 6.5V10.5Z" stroke="white" stroke-width="1.33333" stroke-linecap="round" stroke-linejoin="round"/>
</svg>
